# xmcd CD database file generated by LOLA_Freedb v0.9beta0
# 
# Track frame offsets:
#      150
#      13066
#      27448
#      43199
#      56924
#      70630
#      90756
#      107340
#      121110
#      135558
# 
# Disc length: 1981 seconds
# 
# Revision: 0 
# Processed by: cddbd v1.5.2PL0 Copyright (c) Steve Scherf et al.
# Submitted via: LOLA_Freedb v0.9beta0
# 
DISCID=7807bb0a
DTITLE=Pam Mac Beth - Forever One Day At A Time
DYEAR=1900
DGENRE=
TTITLE0=Pam Mac Beth - Spinnin´My Wheels
TTITLE1=Pam Mac Beth - Dim Lights, Thick Smoke and loud, loud music
TTITLE2=Pam Mac Beth - Touch Me There
TTITLE3=Pam Mac Beth - These Boots Are  Made For Walkin´
TTITLE4=Pam Mac Beth - Forever One Day At A Time
TTITLE5=Pam Mac Beth - Let Me Lean On You Awhile
TTITLE6=Pam Mac Beth - Love is Fallin´ Down Around Us
TTITLE7=Pam Mac Beth - That´s What A Woman´s Made Of
TTITLE8=Pam Mac Beth - Get Ready To Ride
TTITLE9=Pam Mac Beth - Your Good Girl´s Gonna Go Bad
EXTD=
EXTT0=
EXTT1=
EXTT2=
EXTT3=
EXTT4=
EXTT5=
EXTT6=
EXTT7=
EXTT8=
EXTT9=
PLAYORDER=
